# xmcd
#
# Track frame offsets:
#	150
#	13809
#	27681
#	43667
#	60346
#	76497
#	93471
#	108930
#	121139
#	135607
#	149117
#	161145
#	180746
#	195899
#
# Disc length: 2804 seconds
#
# Revision: 1
# Processed by: cddbd v1.5.2PL0 Copyright (c) Steve Scherf et al.
# Submitted via: audiograbber 1.83.01
#
DISCID=c00af20e
DTITLE=Scooter Lee - I'm Gonna Love You Forever
DYEAR=1900
DGENRE=Contry
TTITLE0=Hello Walls
TTITLE1=Take These Chains
TTITLE2=I'm Gonna Love You Forever
TTITLE3=Citty Put The Country In Me
TTITLE4=Life Her On The Farm
TTITLE5=Someone Must Feel Like A Fool
TTITLE6=Country Dowd To My Soul
TTITLE7=Let's Have A Party Tonight
TTITLE8=Old School Bop
TTITLE9=Hole In The Wall
TTITLE10=Why I Don't Know
TTITLE11=Somewhere Under The Rainbow
TTITLE12=Move Across The River
TTITLE13=This Is My Contry, This Is My Flag
EXTD=
EXTT0=
EXTT1=
EXTT2=
EXTT3=
EXTT4=
EXTT5=
EXTT6=
EXTT7=
EXTT8=
EXTT9=
EXTT10=
EXTT11=
EXTT12=
EXTT13=
PLAYORDER=
